<svg width="32" height="32" viewBox="0 0 32 32" fill="none" xmlns="http://www.w3.org/2000/svg">
<rect width="32" height="32" rx="16" fill="#2C2C2C"/>
<g clip-path="url(#clip0_3568_3937)">
<path opacity="0.12" d="M15.9998 21.3334C18.9454 21.3334 21.3332 18.9456 21.3332 16.0001C21.3332 13.0546 18.9454 10.6667 15.9998 10.6667C13.0543 10.6667 10.6665 13.0546 10.6665 16.0001C10.6665 18.9456 13.0543 21.3334 15.9998 21.3334Z" fill="white"/>
<path d="M21.3335 15.9999C21.3335 18.9455 18.9457 21.3333 16.0002 21.3333M21.3335 15.9999C21.3335 13.0544 18.9457 10.6666 16.0002 10.6666M21.3335 15.9999H10.6668M16.0002 21.3333C13.0546 21.3333 10.6668 18.9455 10.6668 15.9999M16.0002 21.3333C17.3342 19.8728 18.0927 17.9775 18.1339 15.9999C18.0927 14.0223 17.3342 12.127 16.0002 10.6666M16.0002 21.3333C14.6661 19.8728 13.9084 17.9775 13.8672 15.9999C13.9084 14.0223 14.6661 12.127 16.0002 10.6666M16.0002 10.6666C13.0546 10.6666 10.6668 13.0544 10.6668 15.9999M12.0002 21.3333C12.0002 22.0697 11.4032 22.6666 10.6668 22.6666C9.93045 22.6666 9.3335 22.0697 9.3335 21.3333C9.3335 20.5969 9.93045 19.9999 10.6668 19.9999C11.4032 19.9999 12.0002 20.5969 12.0002 21.3333ZM22.6668 21.3333C22.6668 22.0697 22.0699 22.6666 21.3335 22.6666C20.5971 22.6666 20.0002 22.0697 20.0002 21.3333C20.0002 20.5969 20.5971 19.9999 21.3335 19.9999C22.0699 19.9999 22.6668 20.5969 22.6668 21.3333ZM12.0002 10.6666C12.0002 11.403 11.4032 11.9999 10.6668 11.9999C9.93045 11.9999 9.3335 11.403 9.3335 10.6666C9.3335 9.93021 9.93045 9.33325 10.6668 9.33325C11.4032 9.33325 12.0002 9.93021 12.0002 10.6666ZM22.6668 10.6666C22.6668 11.403 22.0699 11.9999 21.3335 11.9999C20.5971 11.9999 20.0002 11.403 20.0002 10.6666C20.0002 9.93021 20.5971 9.33325 21.3335 9.33325C22.0699 9.33325 22.6668 9.93021 22.6668 10.6666Z" stroke="white" stroke-width="1.33333" stroke-linecap="round" stroke-linejoin="round"/>
</g>
<defs>
<clipPath id="clip0_3568_3937">
<rect width="16" height="16" fill="white" transform="translate(8 8)"/>
</clipPath>
</defs>
</svg>
