<svg width="512" height="512" viewBox="0 0 512 512" fill="none" xmlns="http://www.w3.org/2000/svg">
<path fill-rule="evenodd" clip-rule="evenodd" d="M68 144.8C68 117.917 68 104.476 73.2317 94.2085C77.8336 85.1767 85.1767 77.8336 94.2085 73.2317C104.476 68 117.917 68 144.8 68H367.2C394.083 68 407.524 68 417.792 73.2317C426.823 77.8336 434.166 85.1767 438.768 94.2085C444 104.476 444 117.917 444 144.8V367.2C444 394.083 444 407.524 438.768 417.792C434.166 426.823 426.823 434.166 417.792 438.768C407.524 444 394.083 444 367.2 444H144.8C117.917 444 104.476 444 94.2085 438.768C85.1767 434.166 77.8336 426.823 73.2317 417.792C68 407.524 68 394.083 68 367.2V144.8ZM88 139.2C88 121.278 88 112.317 91.4878 105.472C94.5557 99.4511 99.4511 94.5557 105.472 91.4878C112.317 88 121.278 88 139.2 88H188C199.201 88 204.802 88 209.08 90.1799C212.843 92.0973 215.903 95.1569 217.82 98.9202C220 103.198 220 108.799 220 120V392C220 403.201 220 408.802 217.82 413.08C215.903 416.843 212.843 419.903 209.08 421.82C204.802 424 199.201 424 188 424H139.2C121.278 424 112.317 424 105.472 420.512C99.4511 417.444 94.5557 412.549 91.4878 406.528C88 399.683 88 390.722 88 372.8V139.2ZM242.18 98.9202C240 103.198 240 108.799 240 120V392C240 403.201 240 408.802 242.18 413.08C244.097 416.843 247.157 419.903 250.92 421.82C255.198 424 260.799 424 272 424H295C306.201 424 311.802 424 316.08 421.82C319.843 419.903 322.903 416.843 324.82 413.08C327 408.802 327 403.201 327 392V120C327 108.799 327 103.198 324.82 98.9202C322.903 95.1569 319.843 92.0973 316.08 90.1799C311.802 88 306.201 88 295 88H272C260.799 88 255.198 88 250.92 90.1799C247.157 92.0973 244.097 95.1569 242.18 98.9202Z" fill="url(#paint0_linear_19_1273)"/>
<defs>
<linearGradient id="paint0_linear_19_1273" x1="444" y1="444" x2="-5.21356" y2="206.447" gradientUnits="userSpaceOnUse">
<stop stop-color="#DACAA0"/>
<stop offset="1" stop-color="#8C93D7"/>
</linearGradient>
</defs>
</svg>
