<svg width="14" height="16" viewBox="0 0 14 16" fill="none" xmlns="http://www.w3.org/2000/svg">
<path d="M8.32844 1.4159C8.36511 1.12223 8.20384 0.839518 7.93237 0.721671C7.66091 0.603828 7.34424 0.679064 7.15478 0.906418L1.20178 8.04995C1.0989 8.17335 0.994695 8.29835 0.918828 8.40822C0.847082 8.51208 0.716075 8.71635 0.712028 8.98475C0.707388 9.29208 0.844335 9.58449 1.08338 9.77762C1.2922 9.94635 1.53297 9.97649 1.65871 9.98788C1.79166 9.99995 1.95438 9.99988 2.11504 9.99988H6.24504L5.67204 14.5838C5.63533 14.8775 5.79664 15.1602 6.06811 15.2781C6.33958 15.3959 6.65624 15.3207 6.84571 15.0933L12.7987 7.94975C12.9016 7.82635 13.0058 7.70135 13.0816 7.59149C13.1534 7.48762 13.2844 7.28335 13.2884 7.01495C13.293 6.70762 13.1561 6.41525 12.9171 6.22207C12.7082 6.05333 12.4675 6.02321 12.3418 6.01183C12.2088 5.99979 12.046 5.99982 11.8854 5.99985L7.75544 5.99986L8.32844 1.41588V1.4159Z" fill="#FFB757"/>
</svg>
