<svg width="16" height="16" viewBox="0 0 16 16" fill="none" xmlns="http://www.w3.org/2000/svg">
<path opacity="0.12" d="M6 14V8H10V14" fill="white"/>
<path d="M5.99992 14V9.06667C5.99992 8.69327 5.99992 8.5066 6.07259 8.364C6.1365 8.23853 6.23849 8.1366 6.36392 8.07267C6.50654 8 6.69325 8 7.06659 8H8.93325C9.30665 8 9.49332 8 9.63592 8.07267C9.76139 8.1366 9.86332 8.23853 9.92725 8.364C9.99992 8.5066 9.99992 8.69327 9.99992 9.06667V14M1.33325 6.33333L7.35992 1.81333C7.58945 1.64121 7.70419 1.55514 7.83019 1.52196C7.94145 1.49268 8.05838 1.49268 8.16965 1.52197C8.29565 1.55514 8.41038 1.64121 8.63992 1.81333L14.6666 6.33333M2.66659 5.33333V11.8667C2.66659 12.6134 2.66659 12.9868 2.81191 13.272C2.93975 13.5229 3.14372 13.7269 3.3946 13.8547C3.67982 14 4.05318 14 4.79992 14H11.1999C11.9467 14 12.3201 14 12.6053 13.8547C12.8561 13.7269 13.0601 13.5229 13.1879 13.272C13.3333 12.9868 13.3333 12.6134 13.3333 11.8667V5.33333L9.27992 2.29333C8.82092 1.94907 8.59138 1.77695 8.33932 1.71059C8.11685 1.65203 7.88298 1.65203 7.66052 1.71059C7.40845 1.77695 7.17892 1.94907 6.71992 2.29333L2.66659 5.33333Z" stroke="white" stroke-width="1.5" stroke-linecap="round" stroke-linejoin="round"/>
</svg>
