<svg width="16" height="16" viewBox="0 0 16 16" fill="none" xmlns="http://www.w3.org/2000/svg">
<path opacity="0.12" d="M12.0001 5.33337C12.0001 4.27251 11.5787 3.25509 10.8286 2.50495C10.0784 1.7548 9.06095 1.33337 8.00008 1.33337C6.93922 1.33337 5.92182 1.7548 5.17167 2.50495C4.42152 3.25509 4.0001 4.27251 4.0001 5.33337C4.0001 7.39351 3.48041 8.80404 2.89987 9.73697C2.41018 10.524 2.16534 10.9174 2.17431 11.0272C2.18426 11.1488 2.21 11.1951 2.30794 11.2678C2.3964 11.3334 2.79516 11.3334 3.59266 11.3334H12.4075C13.205 11.3334 13.6038 11.3334 13.6922 11.2678C13.7902 11.1951 13.8159 11.1488 13.8259 11.0272C13.8349 10.9174 13.59 10.524 13.1003 9.73697C12.5197 8.80404 12.0001 7.39351 12.0001 5.33337Z" fill="white"/>
<path d="M9.33342 14H6.66675M12.0001 5.33337C12.0001 4.27251 11.5787 3.25509 10.8286 2.50495C10.0784 1.7548 9.06095 1.33337 8.00008 1.33337C6.93922 1.33337 5.92182 1.7548 5.17167 2.50495C4.42152 3.25509 4.0001 4.27251 4.0001 5.33337C4.0001 7.39351 3.48041 8.80404 2.89987 9.73697C2.41018 10.524 2.16534 10.9174 2.17431 11.0272C2.18426 11.1488 2.21 11.1951 2.30794 11.2678C2.3964 11.3334 2.79516 11.3334 3.59266 11.3334H12.4075C13.205 11.3334 13.6038 11.3334 13.6922 11.2678C13.7902 11.1951 13.8159 11.1488 13.8259 11.0272C13.8349 10.9174 13.59 10.524 13.1003 9.73697C12.5197 8.80404 12.0001 7.39351 12.0001 5.33337Z" stroke="white" stroke-width="1.5" stroke-linecap="round" stroke-linejoin="round"/>
</svg>
