<svg width="14" height="15" viewBox="0 0 14 15" fill="none" xmlns="http://www.w3.org/2000/svg"> <path d="M1 4.2C1 3.07989 1 2.51984 1.21799 2.09202C1.40973 1.71569 1.71569 1.40973 2.09202 1.21799C2.51984 1 3.07989 1 4.2 1H9.8C10.9201 1 11.4801 1 11.908 1.21799C12.2843 1.40973 12.5903 1.71569 12.782 2.09202C13 2.51984 13 3.07989 13 4.2V7.8C13 8.92013 13 9.48013 12.782 9.908C12.5903 10.2843 12.2843 10.5903 11.908 10.782C11.4801 11 10.9201 11 9.8 11H8.12247C7.70647 11 7.49847 11 7.29947 11.0409C7.12293 11.0771 6.95213 11.137 6.79167 11.219C6.6108 11.3114 6.44833 11.4413 6.12347 11.7012L4.53317 12.9735C4.25578 13.1954 4.11709 13.3063 4.00036 13.3065C3.89885 13.3066 3.80281 13.2604 3.73949 13.1811C3.66667 13.0899 3.66667 12.9123 3.66667 12.557V11C3.04669 11 2.73669 11 2.48236 10.9319C1.79218 10.7469 1.25308 10.2078 1.06815 9.51767C1 9.26333 1 8.95333 1 8.33333V4.2V4.2Z" stroke="white" stroke-width="1.5" stroke-linecap="round" stroke-linejoin="round"/> </svg> 
