<svg width="16" height="16" viewBox="0 0 16 16" fill="none" xmlns="http://www.w3.org/2000/svg">
<g clip-path="url(#clip0_11_352)">
<path opacity="1.0" d="M8.66663 2L9.82276 5.00591C10.0108 5.49473 10.1048 5.73914 10.251 5.94473C10.3805 6.12693 10.5397 6.28613 10.7219 6.41569C10.9275 6.56187 11.1719 6.65587 11.6607 6.84387L14.6666 8L11.6607 9.15613C11.1719 9.34413 10.9275 9.43813 10.7219 9.58433C10.5397 9.71387 10.3805 9.87307 10.251 10.0553C10.1048 10.2609 10.0108 10.5053 9.82276 10.9941L8.66663 14L7.51049 10.9941C7.32249 10.5053 7.22849 10.2609 7.08229 10.0553C6.95276 9.87307 6.79356 9.71387 6.61135 9.58433C6.40577 9.43813 6.16135 9.34413 5.67253 9.15613L2.66663 8L5.67253 6.84387C6.16135 6.65587 6.40577 6.56187 6.61135 6.41569C6.79356 6.28613 6.95276 6.12693 7.08229 5.94473C7.22849 5.73914 7.32249 5.49473 7.51049 5.00591L8.66663 2Z" fill="white"/>
<path d="M3.00004 14.6667V11.3334M3.00004 4.66671V1.33337M1.33337 3.00004H4.66671M1.33337 13H4.66671M8.66671 2.00004L7.51057 5.00595C7.32257 5.49477 7.22857 5.73918 7.08237 5.94477C6.95284 6.12697 6.79364 6.28617 6.61143 6.41573C6.40585 6.56191 6.16143 6.65591 5.67261 6.84391L2.66671 8.00004L5.67261 9.15617C6.16143 9.34417 6.40585 9.43817 6.61143 9.58437C6.79364 9.71391 6.95284 9.87311 7.08237 10.0553C7.22857 10.2609 7.32257 10.5053 7.51057 10.9941L8.66671 14L9.82284 10.9941C10.0108 10.5053 10.1048 10.2609 10.251 10.0553C10.3806 9.87311 10.5398 9.71391 10.722 9.58437C10.9276 9.43817 11.172 9.34417 11.6608 9.15617L14.6667 8.00004L11.6608 6.84391C11.172 6.65591 10.9276 6.56191 10.722 6.41573C10.5398 6.28617 10.3806 6.12697 10.251 5.94477C10.1048 5.73918 10.0108 5.49477 9.82284 5.00595L8.66671 2.00004Z" stroke="white" stroke-width="1.5" stroke-linecap="round" stroke-linejoin="round"/>
</g>
<defs>
<clipPath id="clip0_11_352">
<rect width="16" height="16" fill="white"/>
</clipPath>
</defs>
</svg>
